<svg xmlns="http://www.w3.org/2000/svg" viewBox="0 0 256 256" role="img" aria-label="ChatGPT">
  <rect width="256" height="256" rx="40" fill="#0B0B0C"/>
  <path d="M171.6 104.3c2.1-6.3 2.8-13 2-19.6-.8-6.6-3.1-13-6.7-18.6-5.4-8.6-13.5-15.2-23-18.8-9.5-3.6-19.9-4-29.7-1.1-4.5-5-10-9-16.2-11.7-6.2-2.7-12.9-4-19.6-3.8-9.9.3-19.5 3.7-27.4 9.7-7.9 6-13.7 14.3-16.7 23.7-3.2 6.1-5 12.8-5.3 19.7-.3 6.8 1 13.7 3.7 20-4.5 5.7-7.7 12.4-9.2 19.5-1.6 7.1-1.5 14.5.2 21.6 2.7 11 9.3 20.8 18.6 27.5 7.2 5.2 15.7 8.2 24.6 8.7-2.1 6.3-2.8 13-2 19.6.8 6.6 3.1 13 6.7 18.6 5.4 8.6 13.5 15.2 23 18.8 9.5 3.6 19.9 4 29.7 1.1 4.5 5 10 9 16.2 11.7 6.2 2.7 12.9 4 19.6 3.8 9.9-.3 19.5-3.7 27.4-9.7 7.9-6 13.7-14.3 16.7-23.7 3.2-6.1 5-12.8 5.3-19.7.3-6.8-1-13.7-3.7-20 4.5-5.7 7.7-12.4 9.2-19.5 1.6-7.1 1.5-14.5-.2-21.6-2.7-11-9.3-20.8-18.6-27.5-7.2-5.2-15.7-8.2-24.6-8.7zM142 196.4c-7.9 0-15.5-2.5-21.7-7.1-.3-.2-.1-.6.2-.7l36.4-21.1c.9-.5 1.5-1.5 1.5-2.6v-51.5l15.4 8.9c.1.1.3.2.3.4v42.5c0 17.3-14 31.2-32.1 31.2zM67.4 165.9c-3.9-6.8-5.3-14.7-3.9-22.4 0-.3.4-.5.7-.3l36.4 21.1c.9.5 2.1.5 3 0l44.4-25.7v17.8c0 .1-.1.3-.2.4l-36.8 21.3c-14.9 8.6-34 3.5-43.6-12.2zM57.7 88.6c4-6.9 10.2-12.2 17.6-15v43.1c0 1 .6 2 1.5 2.6l44.4 25.7-15.4 8.9c-.1.1-.3.1-.4 0L68.7 132c-14.9-8.6-19.9-27.7-11-42.4zm126.2 29.4-44.4-25.7 15.4-8.9c.1-.1.3-.1.4 0l36.8 21.3c14.9 8.6 19.9 27.8 11 42.5-4 6.9-10.2 12.1-17.6 14.9v-43.1c.1-1-.5-2-1.6-2.6zm15.3-23-.5-.3-36.3-21.1c-.9-.5-2.1-.5-3 0l-44.4 25.7V81.6c0-.1.1-.3.2-.4l36.8-21.2c14.9-8.6 34-3.5 42.6 11.4 3.9 6.8 5.3 14.6 3.9 22.3zM99.8 137l-15.4-8.9c-.1-.1-.3-.2-.3-.4V85.2c0-17.4 14.1-31.3 32.2-31.3 7.9 0 15.5 2.5 21.7 7.1.3.2.1.6-.2.7l-36.4 21.1c-.9.5-1.5 1.5-1.5 2.6l-.1 51.6zm8.4-17.9 19.8-11.4 19.8 11.4v22.9L128 153.4l-19.8-11.4z" fill="#FFFFFF"/>
</svg>
